<?xml version="1.0" ?><svg viewBox="0 0 512 512" xmlns="http://www.w3.org/2000/svg"><title/><g data-name="1" id="_1"><path d="M364,450a15,15,0,0,1-11.29-5.12L273.5,354.34H118.64a64.58,64.58,0,0,1-64.5-64.51V112.51A64.58,64.58,0,0,1,118.64,48h273a64.58,64.58,0,0,1,64.5,64.51V289.83a64.58,64.58,0,0,1-64.5,64.51H379V435a15,15,0,0,1-15,15ZM118.64,78a34.55,34.55,0,0,0-34.5,34.51V289.83a34.55,34.55,0,0,0,34.5,34.51H280.3a15,15,0,0,1,11.29,5.12L349,395.09V339.34a15,15,0,0,1,15-15h27.59a34.55,34.55,0,0,0,34.5-34.51V112.51A34.55,34.55,0,0,0,391.63,78Z"/><path d="M199.63,264A15.13,15.13,0,0,1,189,259.61c-.34-.35-.67-.72-1-1.1a14.34,14.34,0,0,1-.87-1.18q-.41-.61-.75-1.26c-.23-.43-.44-.88-.63-1.33s-.35-.92-.5-1.38-.26-1-.36-1.43-.17-1-.22-1.45a14.66,14.66,0,0,1-.07-1.48,14.33,14.33,0,0,1,.07-1.47c.05-.49.13-1,.22-1.46s.22-1,.36-1.42.31-.94.5-1.39.4-.89.63-1.32a14.6,14.6,0,0,1,.75-1.27c.27-.4.56-.8.87-1.18s.65-.75,1-1.1a15.15,15.15,0,0,1,12.08-4.32c.49.05,1,.13,1.46.22s1,.22,1.42.36.94.31,1.39.5.89.4,1.32.63.86.48,1.27.75.8.56,1.18.87.75.65,1.09,1,.68.72,1,1.1.6.78.87,1.18a14.6,14.6,0,0,1,.75,1.27q.35.65.63,1.32c.19.45.35.92.5,1.39s.26.94.36,1.42.17,1,.22,1.46.07,1,.07,1.47,0,1-.07,1.48-.13,1-.22,1.45-.22,1-.36,1.43-.31.93-.5,1.38-.4.9-.63,1.33-.48.85-.75,1.26-.57.8-.87,1.18-.65.75-1,1.1-.71.68-1.09,1-.78.6-1.18.87-.84.52-1.27.75-.87.44-1.32.63-.92.35-1.39.5-.94.26-1.42.36-1,.17-1.46.22S200.12,264,199.63,264Z"/><path d="M310.64,264c-.49,0-1,0-1.47-.07s-1-.13-1.46-.22-1-.22-1.43-.36-.93-.31-1.38-.5-.89-.4-1.32-.63a14.6,14.6,0,0,1-1.27-.75c-.4-.27-.8-.56-1.18-.87s-.75-.65-1.1-1-.68-.72-1-1.1-.6-.78-.87-1.18a14.6,14.6,0,0,1-.75-1.27q-.35-.65-.63-1.32c-.19-.45-.35-.92-.5-1.38s-.26-1-.36-1.43-.17-1-.22-1.45-.07-1-.07-1.48,0-1,.07-1.48.13-1,.22-1.45.22-1,.36-1.43.31-.93.5-1.38.4-.9.63-1.33.48-.85.75-1.26a14.34,14.34,0,0,1,.87-1.18c.31-.38.65-.75,1-1.1s.72-.68,1.1-1,.78-.6,1.18-.87a14.6,14.6,0,0,1,1.27-.75q.65-.34,1.32-.63c.45-.19.92-.35,1.38-.5s1-.26,1.43-.36,1-.17,1.46-.22a16.15,16.15,0,0,1,2.95,0c.48.05,1,.13,1.45.22s1,.22,1.43.36.93.31,1.38.5.89.4,1.32.63a14.6,14.6,0,0,1,1.27.75c.4.27.8.56,1.18.87s.75.65,1.1,1,.68.72,1,1.1a14.34,14.34,0,0,1,.87,1.18q.4.62.75,1.26c.23.43.44.88.63,1.33s.35.92.5,1.38.26,1,.36,1.43.17,1,.22,1.45a15.68,15.68,0,0,1,0,3c-.05.48-.13,1-.22,1.45s-.22,1-.36,1.43-.31.93-.5,1.38-.4.89-.63,1.32a14.6,14.6,0,0,1-.75,1.27c-.27.4-.56.8-.87,1.18s-.65.75-1,1.1-.72.68-1.1,1-.78.6-1.18.87a14.6,14.6,0,0,1-1.27.75q-.65.34-1.32.63c-.45.19-.92.35-1.38.5s-.95.26-1.43.36-1,.17-1.45.22S311.13,264,310.64,264Z"/><path d="M255.13,264a14.6,14.6,0,0,1-1.47-.07c-.49-.05-1-.13-1.46-.22s-.95-.22-1.42-.36-.93-.31-1.38-.5-.9-.4-1.33-.63a15.58,15.58,0,0,1-2.45-1.62c-.38-.31-.75-.65-1.09-1a14.67,14.67,0,0,1-1-1.1c-.31-.38-.61-.78-.88-1.18a14.6,14.6,0,0,1-.75-1.27q-.34-.65-.63-1.32c-.18-.45-.35-.92-.49-1.39a13.41,13.41,0,0,1-.36-1.42,14.46,14.46,0,0,1-.29-2.93,14.66,14.66,0,0,1,.07-1.48,14.51,14.51,0,0,1,.22-1.45,14.24,14.24,0,0,1,.36-1.43c.14-.46.31-.93.49-1.38s.4-.89.63-1.32a14.6,14.6,0,0,1,.75-1.27c.27-.4.57-.8.88-1.18a14.67,14.67,0,0,1,1-1.1c.34-.34.71-.68,1.09-1a15.58,15.58,0,0,1,2.45-1.62c.43-.23.88-.44,1.33-.63s.91-.35,1.38-.5.95-.26,1.42-.36,1-.17,1.46-.22a16.15,16.15,0,0,1,3,0c.49.05,1,.13,1.45.22s1,.22,1.43.36.93.31,1.38.5.9.4,1.33.63.85.48,1.26.75a14.5,14.5,0,0,1,1.19.87c.38.31.75.65,1.09,1a14.67,14.67,0,0,1,1,1.1c.31.38.6.78.88,1.18a14.6,14.6,0,0,1,.75,1.27,13.2,13.2,0,0,1,.62,1.32,14.25,14.25,0,0,1,.5,1.38c.14.47.26,1,.36,1.43a14.51,14.51,0,0,1,.22,1.45,14.66,14.66,0,0,1,.07,1.48,14.46,14.46,0,0,1-.29,2.93c-.1.48-.22,1-.36,1.42a13.53,13.53,0,0,1-.5,1.39,13.2,13.2,0,0,1-.62,1.32c-.23.43-.48.86-.75,1.27s-.57.8-.88,1.18a14.67,14.67,0,0,1-1,1.1c-.34.34-.71.68-1.09,1a14.5,14.5,0,0,1-1.19.87q-.61.4-1.26.75c-.43.23-.88.44-1.33.63s-.91.35-1.38.5-.95.26-1.43.36-1,.17-1.45.22A14.66,14.66,0,0,1,255.13,264Z"/></g></svg>